<?xml version="1.0" encoding="UTF-8" standalone="no"?>
<!DOCTYPE svg PUBLIC "-//W3C//DTD SVG 1.1//EN" "http://www.w3.org/Graphics/SVG/1.1/DTD/svg11.dtd">
<svg width="100%" height="100%" viewBox="0 0 1472 470" version="1.1" xmlns="http://www.w3.org/2000/svg" xmlns:xlink="http://www.w3.org/1999/xlink" xml:space="preserve" xmlns:serif="http://www.serif.com/" style="fill-rule:evenodd;clip-rule:evenodd;stroke-linejoin:round;stroke-miterlimit:1.41421;">
    <g transform="matrix(1,0,0,1,-235,-2573)">
        <g id="Artboard5" transform="matrix(1,0,0,1,-0.175462,-0.57499)">
            <rect x="235.175" y="2573.58" width="1471.8" height="469.144" style="fill:none;"/>
            <clipPath id="_clip1">
                <rect x="235.175" y="2573.58" width="1471.8" height="469.144"/>
            </clipPath>
            <g clip-path="url(#_clip1)">
                <g transform="matrix(0.469925,0,0,0.469925,-35.8516,2073.96)">
                    <g transform="matrix(1.11611,0,0,1.11611,-34.5072,-84.9252)">
                        <g transform="matrix(1,0,0,1,1379.94,0)">
                            <path d="M1963.44,1649.44L569.56,1649.44L569.56,1040.56L1963.44,1040.56L1963.44,1649.44ZM596.44,1067.44L596.44,1622.56L1936.56,1622.56L1936.56,1067.44L596.44,1067.44Z" style="fill:rgb(234,227,216);"/>
                        </g>
                        <g transform="matrix(1.05048,0,0,1.05048,-64.4272,-68.1024)">
                            <path d="M583,1054L1950,1054L1950,1636L583,1636L583,1054ZM1333.02,1405.04C1315.35,1426.84 1283.58,1453.51 1233.85,1453.51C1216.1,1453.51 1203.42,1442.52 1207.02,1415.68L1207.44,1411.03C1210.19,1393.28 1222.23,1370.46 1232.8,1353.13C1234.91,1349.33 1239.35,1343.2 1240.83,1340.67C1242.94,1337.92 1245.05,1334.96 1247.17,1332.22C1252.66,1325.24 1259,1318.48 1266.61,1311.72C1276.33,1303.06 1283.72,1297.56 1288.37,1294.6C1306.54,1283.4 1319.64,1277.49 1328.94,1277.49C1333.59,1277.49 1339.08,1280.87 1339.51,1286.36C1339.3,1288.27 1338.87,1289.95 1338.87,1291.64C1338.87,1298.83 1341.83,1306.65 1341.83,1306.65C1341.83,1306.65 1349.44,1327.57 1355.99,1327.57C1367.4,1327.57 1353.24,1317.64 1360,1302.42C1365.92,1288.9 1375.85,1274.53 1377.54,1258.89C1378.17,1251.71 1377.54,1247.69 1377.54,1247.69C1374.58,1232.48 1362.54,1220.86 1356.41,1220.86C1356.2,1220.86 1355.99,1220.86 1355.78,1220.86C1353.03,1220.65 1349.65,1223.61 1349.65,1227.62C1349.65,1230.16 1350.28,1235.86 1354.72,1242.2C1353.24,1249.17 1351.34,1256.36 1349.23,1262.27C1344.79,1254.67 1336.34,1248.75 1322.6,1248.75C1306.96,1248.75 1288.58,1255.51 1268.51,1269.67C1258.58,1276.22 1249.07,1284.88 1239.77,1294.39C1232.03,1302.66 1224.73,1310.79 1218.6,1319.01C1212.47,1310.54 1200.86,1303.06 1181.66,1303.06C1179.55,1303.06 1177.65,1303.06 1175.53,1303.06C1180.18,1293.97 1182.93,1287 1182.93,1283.4C1182.93,1262.06 1162.43,1254.67 1162.43,1260.8C1162.43,1267.77 1155.04,1284.04 1144.47,1303.9C1137.08,1304.75 1125.88,1305.59 1113.2,1305.59C1098.62,1305.59 1088.05,1300.73 1081.92,1295.66C1078.33,1292.49 1074.95,1293.97 1077.49,1301.37C1080.66,1309.82 1089.32,1319.12 1112.78,1319.12C1121.23,1319.12 1129.05,1319.12 1136.44,1318.69C1126.06,1337.67 1114.24,1358.16 1104.34,1376.33C1093.91,1391.4 1080.82,1399.73 1063.12,1403.64C1064.17,1360.32 1073.26,1360.32 1073.26,1348.91C1073.26,1336.87 1059.32,1327.36 1054.45,1323.55C1050.65,1320.59 1047.69,1331.16 1046.43,1336.23C1043.15,1347.58 1032.35,1364.37 1025.02,1375.26C1024.59,1375.61 1024.18,1376.05 1023.82,1376.59C1005.22,1404.69 967.187,1437.66 953.029,1437.66C942.041,1437.66 949.86,1423.5 949.86,1423.5C960.847,1423.5 1005.64,1388.85 1005.64,1368.77C1005.64,1348.7 996.347,1344.89 990.853,1344.89C976.907,1344.89 926.405,1385.89 926.405,1424.13C926.405,1450.12 946.69,1450.34 946.69,1450.34C971.422,1450.34 1016.61,1397.39 1027.02,1383.63C1027.5,1383.24 1027.99,1382.73 1028.46,1382.08C1034.17,1374.27 1039.66,1365.6 1043.89,1358.63C1043.89,1360.53 1044.1,1361.59 1044.1,1361.59C1047.9,1382.72 1043.47,1407.65 1043.47,1407.65C1043.47,1407.65 1010.5,1413.99 1010.5,1431.95C1010.5,1445.69 1026.35,1450.34 1031.21,1450.34C1042.41,1450.34 1062.7,1443.57 1063.12,1412.3C1063.12,1411.67 1063.12,1411.24 1063.12,1410.82C1076.03,1408.37 1085.58,1403.77 1092.61,1398.77C1086.61,1410.98 1082.77,1420.64 1082.77,1425.82C1082.77,1435.97 1085.31,1450.34 1101.15,1450.34C1120.59,1450.34 1167.93,1387.58 1172.36,1380.82C1177.01,1373.84 1170.46,1371.73 1167.5,1376.38C1148.7,1404.48 1113.83,1439.35 1107.49,1439.35C1092.07,1439.35 1142.15,1363.91 1168.14,1316.79C1172.36,1316.58 1176.8,1316.58 1181.24,1316.58C1196.18,1316.58 1207.01,1321.64 1212.9,1326.9C1210.34,1330.49 1208,1334.23 1206.17,1337.71C1203.42,1342.15 1198.78,1349.97 1196.24,1355.04C1189.27,1369.19 1184.83,1382.3 1183.14,1394.13C1176.59,1441.88 1202.58,1462.59 1233.85,1462.59C1279.82,1462.59 1310.79,1441.55 1330.07,1421.01C1330.02,1421.91 1330,1422.81 1330,1423.71C1330,1446.11 1344.15,1450.34 1352.61,1450.34C1353.24,1450.34 1353.88,1450.34 1354.72,1450.34C1354.93,1450.12 1355.35,1450.12 1355.78,1450.12C1355.99,1450.12 1356.2,1450.12 1356.41,1449.91C1368.03,1448.22 1380.5,1438.92 1390.64,1428.36C1392.54,1426.25 1393.6,1424.98 1393.6,1424.98C1394.44,1424.13 1395.29,1423.08 1395.92,1422.23C1397.62,1423.5 1400.36,1424.98 1403.53,1424.98C1407.86,1424.98 1412.33,1422.76 1416.68,1419.31C1415.19,1422.68 1414.25,1425.55 1414.1,1427.73C1412.83,1443.79 1422.34,1450.34 1431.42,1450.34C1443.24,1450.34 1465.35,1420.69 1468.95,1415.74C1469.12,1415.51 1469.28,1415.27 1469.46,1415.05C1469.46,1415.05 1469.28,1415.29 1468.95,1415.74C1461.26,1427.03 1467.45,1450.34 1482.35,1450.34C1491.81,1450.34 1507.8,1435.21 1522.15,1419C1520.89,1422.08 1520.17,1424.81 1520.17,1427.09C1520.17,1443.79 1534.54,1459.42 1534.54,1443.79C1534.54,1433.85 1594.97,1363.49 1601.95,1363.49C1601.95,1363.49 1570.67,1405.75 1570.67,1423.5C1570.67,1439.35 1576.8,1450.34 1585.04,1450.34C1597.44,1450.34 1618.24,1427.83 1634.04,1408.09C1630.61,1415.89 1628.57,1422.05 1628.57,1425.82C1628.57,1435.97 1631.11,1450.34 1646.95,1450.34C1658.87,1450.34 1681.28,1426.75 1697.85,1406.93C1693.65,1415.69 1690.73,1423.16 1691.12,1427.73C1692.6,1443.57 1704.22,1450.12 1712.67,1450.12C1714.57,1450.12 1716.47,1449.28 1718.59,1448.01C1715,1453.72 1711.61,1458.79 1709.08,1461.54C1709.08,1461.54 1632.16,1495.77 1633.43,1509.5C1634.49,1523.45 1645.05,1530.42 1653.29,1530.42C1669.99,1530.42 1682.88,1520.91 1698.09,1506.54C1714.36,1492.17 1730.21,1472.94 1743.73,1452.87L1746.27,1448.86L1746.9,1448.01C1768.45,1440.4 1812.19,1385.89 1816.42,1379.55C1820.86,1372.58 1814.52,1370.46 1811.56,1375.11C1796.35,1397.72 1768.88,1424.77 1755.57,1434.28C1773.74,1404.06 1784.73,1378.28 1783.88,1366.87C1782.4,1350.6 1767.61,1340.67 1768.03,1344.68C1770.14,1368.98 1727.67,1441.46 1713.09,1441.46C1699.99,1441.46 1742.46,1383.56 1740.99,1366.66C1739.51,1349.54 1722.18,1341.3 1722.6,1346.37C1723.23,1353.73 1718.9,1364.73 1713.27,1376.44C1694.45,1404.53 1659.63,1439.35 1653.29,1439.35C1637.87,1439.35 1687.95,1363.91 1713.94,1316.79C1718.16,1316.58 1722.6,1316.58 1727.04,1316.58C1750.49,1316.58 1763.81,1329.05 1763.81,1335.17C1763.81,1335.17 1771.2,1336.02 1769.09,1328.62C1765.92,1317.21 1753.88,1303.06 1727.46,1303.06C1725.35,1303.06 1723.45,1303.06 1721.33,1303.06C1725.98,1293.97 1728.73,1287 1728.73,1283.4C1728.73,1262.06 1708.23,1254.67 1708.23,1260.8C1708.23,1267.77 1700.84,1284.04 1690.27,1303.9C1682.88,1304.75 1671.68,1305.59 1659,1305.59C1644.42,1305.59 1633.85,1300.73 1627.73,1295.66C1624.13,1292.49 1620.75,1293.97 1623.29,1301.37C1626.46,1309.82 1635.12,1319.12 1658.58,1319.12C1667.03,1319.12 1674.85,1319.12 1682.24,1318.69C1672.36,1336.74 1661.19,1356.17 1651.6,1373.66C1651.14,1374.04 1650.71,1374.52 1650.34,1375.11C1631.53,1403.21 1600.68,1439.56 1588,1439.56C1578.28,1439.56 1627.73,1376.38 1627.73,1366.03C1627.73,1355.67 1623.29,1344.89 1615.89,1344.89C1608.94,1344.89 1572.75,1381.46 1570.37,1383.86C1570.29,1383.94 1570.25,1383.99 1570.25,1383.99L1570.37,1383.86C1571.32,1382.89 1577.43,1376.21 1577.43,1366.66C1577.43,1345.53 1562.01,1337.5 1562.01,1344.89C1562.01,1352.57 1556.49,1363.23 1549.46,1374.52C1548.72,1374.9 1548.01,1375.51 1547.43,1376.38C1528.62,1404.69 1493.76,1441.88 1487.42,1441.88C1474.74,1441.88 1522.71,1384.83 1523.98,1367.71C1525.24,1350.6 1507.07,1341.09 1506.65,1345.95C1504.96,1370.25 1440.51,1441.67 1435.23,1441.67C1421.28,1441.67 1470.94,1382.51 1472.2,1365.6C1473.47,1348.7 1454.24,1341.3 1453.82,1346.16C1453.3,1353.23 1448.25,1363.72 1441.91,1374.97C1441.64,1375.26 1441.38,1375.58 1441.14,1375.96C1424.03,1401.74 1414.31,1417.58 1404.16,1417.58C1403.11,1417.58 1400.78,1416.74 1400.15,1416.1C1406.91,1407.23 1410.72,1400.47 1410.72,1396.66C1410.72,1378.91 1389.8,1386.52 1389.8,1403.64C1389.8,1411.24 1391.7,1416.53 1391.7,1416.53C1391.7,1416.53 1368.67,1441.46 1356.2,1441.46C1337.82,1441.46 1373.74,1366.24 1408.81,1366.24C1418.32,1366.24 1420.01,1363.28 1419.17,1361.8C1413.88,1352.92 1405.43,1345.11 1393.6,1345.11C1374.35,1345.11 1342.85,1373.6 1333.02,1405.04ZM1646.32,1516.9C1642.52,1516.9 1639.35,1514.57 1638.92,1510.77C1638.29,1503.37 1701.68,1471.26 1701.68,1471.26C1701.68,1471.26 1667.03,1516.9 1646.32,1516.9ZM697.984,1396.88C686.574,1396.88 667.133,1391.8 667.133,1370.04C667.133,1323.34 739.822,1253.19 807.229,1253.19C827.091,1253.19 838.079,1265.23 838.079,1275.59C838.079,1308.13 742.358,1407.23 742.358,1437.87C742.358,1457.73 767.926,1465.13 767.926,1454.14C767.926,1454.14 804.693,1404.27 857.308,1352.71C857.308,1352.71 823.922,1406.81 823.922,1431.74C823.922,1456.67 838.924,1459.84 841.883,1459.84C844.841,1459.84 953.663,1362.22 953.663,1322.5C953.663,1282.98 920.488,1265.87 907.176,1265.87C893.652,1265.87 897.667,1273.26 905.485,1273.26C913.515,1273.26 925.771,1288.05 925.771,1311.3C925.771,1359.05 875.269,1417.16 851.814,1437.87C851.814,1414.41 886.257,1363.07 886.257,1350.6C886.257,1338.13 863.858,1315.31 863.858,1330.31C863.858,1330.31 783.351,1419.7 772.152,1428.78C772.152,1419.27 856.04,1320.38 856.04,1283.19C856.04,1254.88 827.091,1244.31 805.75,1244.31C721.861,1244.31 642.833,1303.69 642.833,1350.6C642.833,1386.31 674.74,1404.69 702.421,1404.69C710.874,1404.69 739.611,1398.78 739.611,1385.25C739.611,1371.94 724.82,1396.88 697.984,1396.88ZM1017.48,1433.22C1017.48,1421.39 1043.26,1415.26 1043.26,1415.26C1036.28,1442.94 1017.48,1442.52 1017.48,1433.22ZM988.74,1371.1C995.713,1371.1 982.189,1398.57 953.452,1415.47C953.452,1415.47 981.555,1371.1 988.74,1371.1Z" style="fill:rgb(234,227,216);"/>
                        </g>
                        <g transform="matrix(17.6087,0,0,17.6087,-13182.9,-21634.1)">
                            <text x="869.375px" y="1309.27px" style="font-family:'Impact', sans-serif;font-stretch:condensed;font-size:12px;fill:rgb(234,227,216);">Y<tspan x="874.514px 880.649px " y="1309.27px 1309.27px ">ou</tspan>th Group</text>
                        </g>
                    </g>
                    <g transform="matrix(16.2369,0,0,16.2369,-11126.7,-13817.7)">
                        <path d="M724.779,977.402L725.166,975.996L727.182,969.398L727.533,969.398L729.537,975.996L729.918,977.402L730.316,975.996L732.074,969.398L732.42,969.398L730.123,977.929L729.766,977.929L727.65,970.816L727.352,969.914L727.064,970.816L724.932,977.929L724.574,977.929L722.271,969.398L722.623,969.398L724.393,975.996L724.779,977.402Z" style="fill:rgb(234,227,216);fill-rule:nonzero;"/>
                        <path d="M740.349,973.699L736.071,973.699L736.071,977.613L740.946,977.613L740.946,977.929L735.755,977.929L735.755,969.398L740.946,969.398L740.946,969.715L736.071,969.715L736.071,973.383L740.349,973.383L740.349,973.699Z" style="fill:rgb(234,227,216);fill-rule:nonzero;"/>
                        <path d="M753.552,975.381L749.375,975.381L748.425,977.929L748.08,977.929L751.273,969.398L751.66,969.398L754.853,977.929L754.507,977.929L753.552,975.381ZM749.492,975.064L753.435,975.064L751.466,969.779L749.492,975.064Z" style="fill:rgb(234,227,216);fill-rule:nonzero;"/>
                        <path d="M761.27,974.279L758.311,974.279L758.311,977.929L757.995,977.929L757.995,969.398L760.714,969.398C761.569,969.398 762.25,969.619 762.756,970.06C763.261,970.502 763.514,971.101 763.514,971.859C763.514,972.441 763.334,972.95 762.972,973.385C762.611,973.821 762.151,974.092 761.593,974.197L763.872,977.847L763.872,977.929L763.538,977.929L761.27,974.279ZM758.311,973.963L761.001,973.963C761.657,973.963 762.187,973.763 762.592,973.365C762.996,972.967 763.198,972.465 763.198,971.859C763.198,971.195 762.974,970.672 762.527,970.289C762.08,969.906 761.468,969.715 760.69,969.715L758.311,969.715L758.311,973.963Z" style="fill:rgb(234,227,216);fill-rule:nonzero;"/>
                        <path d="M772.269,973.699L767.992,973.699L767.992,977.613L772.867,977.613L772.867,977.929L767.676,977.929L767.676,969.398L772.867,969.398L772.867,969.715L767.992,969.715L767.992,973.383L772.269,973.383L772.269,973.699Z" style="fill:rgb(234,227,216);fill-rule:nonzero;"/>
                        <path d="M780.979,977.929L780.979,969.398L783.223,969.398C784.141,969.398 784.835,969.585 785.306,969.958C785.777,970.331 786.012,970.873 786.012,971.584C786.012,972.099 785.881,972.527 785.619,972.867C785.358,973.207 784.989,973.424 784.512,973.517C785.051,973.588 785.5,973.821 785.86,974.218C786.219,974.614 786.399,975.068 786.399,975.58C786.399,976.306 786.163,976.88 785.693,977.3C785.222,977.719 784.567,977.929 783.727,977.929L780.979,977.929ZM781.295,973.717L781.295,977.613L783.762,977.613C784.485,977.613 785.052,977.434 785.464,977.077C785.876,976.719 786.082,976.224 786.082,975.592C786.082,975.052 785.883,974.608 785.485,974.259C785.086,973.909 784.553,973.728 783.885,973.717L781.295,973.717ZM781.295,973.4L783.34,973.4C784.118,973.4 784.703,973.251 785.098,972.952C785.493,972.653 785.69,972.189 785.69,971.56C785.69,970.349 784.891,969.734 783.293,969.715L781.295,969.715L781.295,973.4Z" style="fill:rgb(234,227,216);fill-rule:nonzero;"/>
                        <path d="M794.609,973.699L790.332,973.699L790.332,977.613L795.207,977.613L795.207,977.929L790.015,977.929L790.015,969.398L795.207,969.398L795.207,969.715L790.332,969.715L790.332,973.383L794.609,973.383L794.609,973.699Z" style="fill:rgb(234,227,216);fill-rule:nonzero;"/>
                        <path d="M804.442,969.715L801.337,969.715L801.337,977.929L801.02,977.929L801.02,969.715L797.915,969.715L797.915,969.398L804.442,969.398L804.442,969.715Z" style="fill:rgb(234,227,216);fill-rule:nonzero;"/>
                        <path d="M813.508,969.715L810.402,969.715L810.402,977.929L810.086,977.929L810.086,969.715L806.98,969.715L806.98,969.398L813.508,969.398L813.508,969.715Z" style="fill:rgb(234,227,216);fill-rule:nonzero;"/>
                        <path d="M821.396,973.699L817.118,973.699L817.118,977.613L821.993,977.613L821.993,977.929L816.802,977.929L816.802,969.398L821.993,969.398L821.993,969.715L817.118,969.715L817.118,973.383L821.396,973.383L821.396,973.699Z" style="fill:rgb(234,227,216);fill-rule:nonzero;"/>
                        <path d="M828.68,974.279L825.721,974.279L825.721,977.929L825.405,977.929L825.405,969.398L828.123,969.398C828.979,969.398 829.66,969.619 830.165,970.06C830.671,970.502 830.924,971.101 830.924,971.859C830.924,972.441 830.744,972.95 830.382,973.385C830.021,973.821 829.561,974.092 829.002,974.197L831.282,977.847L831.282,977.929L830.948,977.929L828.68,974.279ZM825.721,973.963L828.411,973.963C829.067,973.963 829.597,973.763 830.001,973.365C830.406,972.967 830.608,972.465 830.608,971.859C830.608,971.195 830.384,970.672 829.937,970.289C829.49,969.906 828.877,969.715 828.1,969.715L825.721,969.715L825.721,973.963Z" style="fill:rgb(234,227,216);fill-rule:nonzero;"/>
                        <path d="M845.2,969.715L842.094,969.715L842.094,977.929L841.778,977.929L841.778,969.715L838.673,969.715L838.673,969.398L845.2,969.398L845.2,969.715Z" style="fill:rgb(234,227,216);fill-rule:nonzero;"/>
                        <path d="M854.371,974.302C854.371,975.041 854.239,975.694 853.976,976.262C853.712,976.831 853.336,977.27 852.848,977.581C852.359,977.891 851.797,978.047 851.16,978.047C850.199,978.047 849.422,977.705 848.828,977.021C848.234,976.338 847.937,975.416 847.937,974.256L847.937,973.025C847.937,972.291 848.069,971.638 848.333,971.068C848.597,970.498 848.974,970.057 849.464,969.747C849.954,969.436 850.516,969.281 851.148,969.281C851.785,969.281 852.349,969.436 852.839,969.747C853.329,970.057 853.707,970.499 853.973,971.071C854.238,971.643 854.371,972.295 854.371,973.025L854.371,974.302ZM854.055,973.013C854.055,971.982 853.793,971.155 853.269,970.532C852.746,969.909 852.039,969.597 851.148,969.597C850.269,969.597 849.568,969.907 849.045,970.526C848.521,971.145 848.26,971.988 848.26,973.054L848.26,974.302C848.26,974.982 848.378,975.583 848.614,976.104C848.851,976.626 849.187,977.027 849.625,977.308C850.062,977.59 850.574,977.73 851.16,977.73C852.051,977.73 852.756,977.42 853.275,976.799C853.795,976.177 854.055,975.33 854.055,974.256L854.055,973.013Z" style="fill:rgb(234,227,216);fill-rule:nonzero;"/>
                        <path d="M864.134,977.015C863.919,977.312 863.542,977.558 863.003,977.754C862.464,977.949 861.87,978.047 861.222,978.047C860.589,978.047 860.025,977.892 859.528,977.584C859.032,977.275 858.645,976.84 858.365,976.277C858.086,975.715 857.943,975.078 857.935,974.367L857.935,972.902C857.935,972.203 858.069,971.576 858.339,971.021C858.609,970.467 858.987,970.038 859.476,969.735C859.964,969.432 860.513,969.281 861.122,969.281C861.97,969.281 862.66,969.498 863.194,969.931C863.727,970.365 864.036,970.957 864.122,971.707L863.806,971.707C863.7,971.027 863.417,970.506 862.956,970.142C862.495,969.779 861.884,969.597 861.122,969.597C860.263,969.597 859.569,969.904 859.042,970.517C858.515,971.131 858.251,971.937 858.251,972.937L858.251,974.297C858.251,974.965 858.375,975.56 858.623,976.084C858.871,976.607 859.221,977.012 859.672,977.3C860.123,977.587 860.64,977.73 861.222,977.73C861.792,977.73 862.321,977.646 862.81,977.478C863.298,977.31 863.634,977.107 863.818,976.869L863.818,974.385L861.21,974.385L861.21,974.062L864.134,974.062L864.134,977.015Z" style="fill:rgb(234,227,216);fill-rule:nonzero;"/>
                        <path d="M872.754,973.699L868.477,973.699L868.477,977.613L873.352,977.613L873.352,977.929L868.161,977.929L868.161,969.398L873.352,969.398L873.352,969.715L868.477,969.715L868.477,973.383L872.754,973.383L872.754,973.699Z" style="fill:rgb(234,227,216);fill-rule:nonzero;"/>
                        <path d="M882.587,969.715L879.482,969.715L879.482,977.929L879.166,977.929L879.166,969.715L876.06,969.715L876.06,969.398L882.587,969.398L882.587,969.715Z" style="fill:rgb(234,227,216);fill-rule:nonzero;"/>
                        <path d="M891.964,977.929L891.647,977.929L891.647,973.699L886.198,973.699L886.198,977.929L885.882,977.929L885.882,969.398L886.198,969.398L886.198,973.383L891.647,973.383L891.647,969.398L891.964,969.398L891.964,977.929Z" style="fill:rgb(234,227,216);fill-rule:nonzero;"/>
                        <path d="M900.701,973.699L896.424,973.699L896.424,977.613L901.299,977.613L901.299,977.929L896.107,977.929L896.107,969.398L901.299,969.398L901.299,969.715L896.424,969.715L896.424,973.383L900.701,973.383L900.701,973.699Z" style="fill:rgb(234,227,216);fill-rule:nonzero;"/>
                        <path d="M907.986,974.279L905.027,974.279L905.027,977.929L904.71,977.929L904.71,969.398L907.429,969.398C908.284,969.398 908.965,969.619 909.471,970.06C909.977,970.502 910.23,971.101 910.23,971.859C910.23,972.441 910.049,972.95 909.688,973.385C909.326,973.821 908.866,974.092 908.308,974.197L910.587,977.847L910.587,977.929L910.253,977.929L907.986,974.279ZM905.027,973.963L907.716,973.963C908.372,973.963 908.902,973.763 909.307,973.365C909.711,972.967 909.913,972.465 909.913,971.859C909.913,971.195 909.69,970.672 909.242,970.289C908.795,969.906 908.183,969.715 907.405,969.715L905.027,969.715L905.027,973.963Z" style="fill:rgb(234,227,216);fill-rule:nonzero;"/>
                    </g>
                </g>
            </g>
        </g>
    </g>
</svg>
