<?xml version="1.0" encoding="UTF-8" standalone="no"?>
<!DOCTYPE svg PUBLIC "-//W3C//DTD SVG 1.1//EN" "http://www.w3.org/Graphics/SVG/1.1/DTD/svg11.dtd">
<svg width="100%" height="100%" viewBox="0 0 492 414" version="1.1" xmlns="http://www.w3.org/2000/svg" xmlns:xlink="http://www.w3.org/1999/xlink" xml:space="preserve" xmlns:serif="http://www.serif.com/" style="fill-rule:evenodd;clip-rule:evenodd;stroke-linejoin:round;stroke-miterlimit:1.41421;">
    <g transform="matrix(1,0,0,1,-7404,-1705)">
        <g id="Artboard4" transform="matrix(1,0,0,1,-0.35721,-0.802346)">
            <rect x="7404.36" y="1705.8" width="491.502" height="413.592" style="fill:none;"/>
            <g transform="matrix(0.279642,0,0,0.279642,5240.94,1517.06)">
                <g transform="matrix(1.03211,0,0,1.03211,-1709.3,334.215)">
                    <g transform="matrix(1.20741,0,0,1.20741,8475.33,-235.619)">
                        <path d="M1962.04,1648.04L570.964,1648.04L570.964,1041.96L1962.04,1041.96L1962.04,1648.04ZM595.037,1066.04L595.037,1623.96L1937.96,1623.96L1937.96,1066.04L595.037,1066.04Z" style="fill:rgb(234,227,216);"/>
                    </g>
                    <g transform="matrix(21.261,0,0,21.261,-9107.97,-26356.9)">
                        <text x="869.375px" y="1309.27px" style="font-family:'Impact', sans-serif;font-stretch:condensed;font-size:12px;fill:rgb(234,227,216);">Y<tspan x="874.514px 880.649px " y="1309.27px 1309.27px ">ou</tspan>th Group</text>
                    </g>
                </g>
                <g transform="matrix(1.26835,0,0,1.26835,7009.6,-659.027)">
                    <path d="M583,1054L1950,1054L1950,1636L583,1636L583,1054ZM1333.02,1405.04C1315.35,1426.84 1283.58,1453.51 1233.85,1453.51C1216.1,1453.51 1203.42,1442.52 1207.02,1415.68L1207.44,1411.03C1210.19,1393.28 1222.23,1370.46 1232.8,1353.13C1234.91,1349.33 1239.35,1343.2 1240.83,1340.67C1242.94,1337.92 1245.05,1334.96 1247.17,1332.22C1252.66,1325.24 1259,1318.48 1266.61,1311.72C1276.33,1303.06 1283.72,1297.56 1288.37,1294.6C1306.54,1283.4 1319.64,1277.49 1328.94,1277.49C1333.59,1277.49 1339.08,1280.87 1339.51,1286.36C1339.3,1288.27 1338.87,1289.95 1338.87,1291.64C1338.87,1298.83 1341.83,1306.65 1341.83,1306.65C1341.83,1306.65 1349.44,1327.57 1355.99,1327.57C1367.4,1327.57 1353.24,1317.64 1360,1302.42C1365.92,1288.9 1375.85,1274.53 1377.54,1258.89C1378.17,1251.71 1377.54,1247.69 1377.54,1247.69C1374.58,1232.48 1362.54,1220.86 1356.41,1220.86C1356.2,1220.86 1355.99,1220.86 1355.78,1220.86C1353.03,1220.65 1349.65,1223.61 1349.65,1227.62C1349.65,1230.16 1350.28,1235.86 1354.72,1242.2C1353.24,1249.17 1351.34,1256.36 1349.23,1262.27C1344.79,1254.67 1336.34,1248.75 1322.6,1248.75C1306.96,1248.75 1288.58,1255.51 1268.51,1269.67C1258.58,1276.22 1249.07,1284.88 1239.77,1294.39C1232.03,1302.66 1224.73,1310.79 1218.6,1319.01C1212.47,1310.54 1200.86,1303.06 1181.66,1303.06C1179.55,1303.06 1177.65,1303.06 1175.53,1303.06C1180.18,1293.97 1182.93,1287 1182.93,1283.4C1182.93,1262.06 1162.43,1254.67 1162.43,1260.8C1162.43,1267.77 1155.04,1284.04 1144.47,1303.9C1137.08,1304.75 1125.88,1305.59 1113.2,1305.59C1098.62,1305.59 1088.05,1300.73 1081.92,1295.66C1078.33,1292.49 1074.95,1293.97 1077.49,1301.37C1080.66,1309.82 1089.32,1319.12 1112.78,1319.12C1121.23,1319.12 1129.05,1319.12 1136.44,1318.69C1126.06,1337.67 1114.24,1358.16 1104.34,1376.33C1093.91,1391.4 1080.82,1399.73 1063.12,1403.64C1064.17,1360.32 1073.26,1360.32 1073.26,1348.91C1073.26,1336.87 1059.32,1327.36 1054.45,1323.55C1050.65,1320.59 1047.69,1331.16 1046.43,1336.23C1043.15,1347.58 1032.35,1364.37 1025.02,1375.26C1024.59,1375.61 1024.18,1376.05 1023.82,1376.59C1005.22,1404.69 967.187,1437.66 953.029,1437.66C942.041,1437.66 949.86,1423.5 949.86,1423.5C960.847,1423.5 1005.64,1388.85 1005.64,1368.77C1005.64,1348.7 996.347,1344.89 990.853,1344.89C976.907,1344.89 926.405,1385.89 926.405,1424.13C926.405,1450.12 946.69,1450.34 946.69,1450.34C971.422,1450.34 1016.61,1397.39 1027.02,1383.63C1027.5,1383.24 1027.99,1382.73 1028.46,1382.08C1034.17,1374.27 1039.66,1365.6 1043.89,1358.63C1043.89,1360.53 1044.1,1361.59 1044.1,1361.59C1047.9,1382.72 1043.47,1407.65 1043.47,1407.65C1043.47,1407.65 1010.5,1413.99 1010.5,1431.95C1010.5,1445.69 1026.35,1450.34 1031.21,1450.34C1042.41,1450.34 1062.7,1443.57 1063.12,1412.3C1063.12,1411.67 1063.12,1411.24 1063.12,1410.82C1076.03,1408.37 1085.58,1403.77 1092.61,1398.77C1086.61,1410.98 1082.77,1420.64 1082.77,1425.82C1082.77,1435.97 1085.31,1450.34 1101.15,1450.34C1120.59,1450.34 1167.93,1387.58 1172.36,1380.82C1177.01,1373.84 1170.46,1371.73 1167.5,1376.38C1148.7,1404.48 1113.83,1439.35 1107.49,1439.35C1092.07,1439.35 1142.15,1363.91 1168.14,1316.79C1172.36,1316.58 1176.8,1316.58 1181.24,1316.58C1196.18,1316.58 1207.01,1321.64 1212.9,1326.9C1210.34,1330.49 1208,1334.23 1206.17,1337.71C1203.42,1342.15 1198.78,1349.97 1196.24,1355.04C1189.27,1369.19 1184.83,1382.3 1183.14,1394.13C1176.59,1441.88 1202.58,1462.59 1233.85,1462.59C1279.82,1462.59 1310.79,1441.55 1330.07,1421.01C1330.02,1421.91 1330,1422.81 1330,1423.71C1330,1446.11 1344.15,1450.34 1352.61,1450.34C1353.24,1450.34 1353.88,1450.34 1354.72,1450.34C1354.93,1450.12 1355.35,1450.12 1355.78,1450.12C1355.99,1450.12 1356.2,1450.12 1356.41,1449.91C1368.03,1448.22 1380.5,1438.92 1390.64,1428.36C1392.54,1426.25 1393.6,1424.98 1393.6,1424.98C1394.44,1424.13 1395.29,1423.08 1395.92,1422.23C1397.62,1423.5 1400.36,1424.98 1403.53,1424.98C1407.86,1424.98 1412.33,1422.76 1416.68,1419.31C1415.19,1422.68 1414.25,1425.55 1414.1,1427.73C1412.83,1443.79 1422.34,1450.34 1431.42,1450.34C1443.24,1450.34 1465.35,1420.69 1468.95,1415.74C1469.12,1415.51 1469.28,1415.27 1469.46,1415.05C1469.46,1415.05 1469.28,1415.29 1468.95,1415.74C1461.26,1427.03 1467.45,1450.34 1482.35,1450.34C1491.81,1450.34 1507.8,1435.21 1522.15,1419C1520.89,1422.08 1520.17,1424.81 1520.17,1427.09C1520.17,1443.79 1534.54,1459.42 1534.54,1443.79C1534.54,1433.85 1594.97,1363.49 1601.95,1363.49C1601.95,1363.49 1570.67,1405.75 1570.67,1423.5C1570.67,1439.35 1576.8,1450.34 1585.04,1450.34C1597.44,1450.34 1618.24,1427.83 1634.04,1408.09C1630.61,1415.89 1628.57,1422.05 1628.57,1425.82C1628.57,1435.97 1631.11,1450.34 1646.95,1450.34C1658.87,1450.34 1681.28,1426.75 1697.85,1406.93C1693.65,1415.69 1690.73,1423.16 1691.12,1427.73C1692.6,1443.57 1704.22,1450.12 1712.67,1450.12C1714.57,1450.12 1716.47,1449.28 1718.59,1448.01C1715,1453.72 1711.61,1458.79 1709.08,1461.54C1709.08,1461.54 1632.16,1495.77 1633.43,1509.5C1634.49,1523.45 1645.05,1530.42 1653.29,1530.42C1669.99,1530.42 1682.88,1520.91 1698.09,1506.54C1714.36,1492.17 1730.21,1472.94 1743.73,1452.87L1746.27,1448.86L1746.9,1448.01C1768.45,1440.4 1812.19,1385.89 1816.42,1379.55C1820.86,1372.58 1814.52,1370.46 1811.56,1375.11C1796.35,1397.72 1768.88,1424.77 1755.57,1434.28C1773.74,1404.06 1784.73,1378.28 1783.88,1366.87C1782.4,1350.6 1767.61,1340.67 1768.03,1344.68C1770.14,1368.98 1727.67,1441.46 1713.09,1441.46C1699.99,1441.46 1742.46,1383.56 1740.99,1366.66C1739.51,1349.54 1722.18,1341.3 1722.6,1346.37C1723.23,1353.73 1718.9,1364.73 1713.27,1376.44C1694.45,1404.53 1659.63,1439.35 1653.29,1439.35C1637.87,1439.35 1687.95,1363.91 1713.94,1316.79C1718.16,1316.58 1722.6,1316.58 1727.04,1316.58C1750.49,1316.58 1763.81,1329.05 1763.81,1335.17C1763.81,1335.17 1771.2,1336.02 1769.09,1328.62C1765.92,1317.21 1753.88,1303.06 1727.46,1303.06C1725.35,1303.06 1723.45,1303.06 1721.33,1303.06C1725.98,1293.97 1728.73,1287 1728.73,1283.4C1728.73,1262.06 1708.23,1254.67 1708.23,1260.8C1708.23,1267.77 1700.84,1284.04 1690.27,1303.9C1682.88,1304.75 1671.68,1305.59 1659,1305.59C1644.42,1305.59 1633.85,1300.73 1627.73,1295.66C1624.13,1292.49 1620.75,1293.97 1623.29,1301.37C1626.46,1309.82 1635.12,1319.12 1658.58,1319.12C1667.03,1319.12 1674.85,1319.12 1682.24,1318.69C1672.36,1336.74 1661.19,1356.17 1651.6,1373.66C1651.14,1374.04 1650.71,1374.52 1650.34,1375.11C1631.53,1403.21 1600.68,1439.56 1588,1439.56C1578.28,1439.56 1627.73,1376.38 1627.73,1366.03C1627.73,1355.67 1623.29,1344.89 1615.89,1344.89C1608.94,1344.89 1572.75,1381.46 1570.37,1383.86C1570.29,1383.94 1570.25,1383.99 1570.25,1383.99L1570.37,1383.86C1571.32,1382.89 1577.43,1376.21 1577.43,1366.66C1577.43,1345.53 1562.01,1337.5 1562.01,1344.89C1562.01,1352.57 1556.49,1363.23 1549.46,1374.52C1548.72,1374.9 1548.01,1375.51 1547.43,1376.38C1528.62,1404.69 1493.76,1441.88 1487.42,1441.88C1474.74,1441.88 1522.71,1384.83 1523.98,1367.71C1525.24,1350.6 1507.07,1341.09 1506.65,1345.95C1504.96,1370.25 1440.51,1441.67 1435.23,1441.67C1421.28,1441.67 1470.94,1382.51 1472.2,1365.6C1473.47,1348.7 1454.24,1341.3 1453.82,1346.16C1453.3,1353.23 1448.25,1363.72 1441.91,1374.97C1441.64,1375.26 1441.38,1375.58 1441.14,1375.96C1424.03,1401.74 1414.31,1417.58 1404.16,1417.58C1403.11,1417.58 1400.78,1416.74 1400.15,1416.1C1406.91,1407.23 1410.72,1400.47 1410.72,1396.66C1410.72,1378.91 1389.8,1386.52 1389.8,1403.64C1389.8,1411.24 1391.7,1416.53 1391.7,1416.53C1391.7,1416.53 1368.67,1441.46 1356.2,1441.46C1337.82,1441.46 1373.74,1366.24 1408.81,1366.24C1418.32,1366.24 1420.01,1363.28 1419.17,1361.8C1413.88,1352.92 1405.43,1345.11 1393.6,1345.11C1374.35,1345.11 1342.85,1373.6 1333.02,1405.04ZM1646.32,1516.9C1642.52,1516.9 1639.35,1514.57 1638.92,1510.77C1638.29,1503.37 1701.68,1471.26 1701.68,1471.26C1701.68,1471.26 1667.03,1516.9 1646.32,1516.9ZM697.984,1396.88C686.574,1396.88 667.133,1391.8 667.133,1370.04C667.133,1323.34 739.822,1253.19 807.229,1253.19C827.091,1253.19 838.079,1265.23 838.079,1275.59C838.079,1308.13 742.358,1407.23 742.358,1437.87C742.358,1457.73 767.926,1465.13 767.926,1454.14C767.926,1454.14 804.693,1404.27 857.308,1352.71C857.308,1352.71 823.922,1406.81 823.922,1431.74C823.922,1456.67 838.924,1459.84 841.883,1459.84C844.841,1459.84 953.663,1362.22 953.663,1322.5C953.663,1282.98 920.488,1265.87 907.176,1265.87C893.652,1265.87 897.667,1273.26 905.485,1273.26C913.515,1273.26 925.771,1288.05 925.771,1311.3C925.771,1359.05 875.269,1417.16 851.814,1437.87C851.814,1414.41 886.257,1363.07 886.257,1350.6C886.257,1338.13 863.858,1315.31 863.858,1330.31C863.858,1330.31 783.351,1419.7 772.152,1428.78C772.152,1419.27 856.04,1320.38 856.04,1283.19C856.04,1254.88 827.091,1244.31 805.75,1244.31C721.861,1244.31 642.833,1303.69 642.833,1350.6C642.833,1386.31 674.74,1404.69 702.421,1404.69C710.874,1404.69 739.611,1398.78 739.611,1385.25C739.611,1371.94 724.82,1396.88 697.984,1396.88ZM1017.48,1433.22C1017.48,1421.39 1043.26,1415.26 1043.26,1415.26C1036.28,1442.94 1017.48,1442.52 1017.48,1433.22ZM988.74,1371.1C995.713,1371.1 982.189,1398.57 953.452,1415.47C953.452,1415.47 981.555,1371.1 988.74,1371.1Z" style="fill:rgb(234,227,216);"/>
                </g>
            </g>
        </g>
    </g>
</svg>
